<?xml version="1.0" encoding="UTF-8" standalone="no"?>
<svg width="1533px" height="241px" viewBox="0 0 1533 241" version="1.1" xmlns="http://www.w3.org/2000/svg" xmlns:xlink="http://www.w3.org/1999/xlink">
    <!-- Generator: Sketch 39.1 (31720) - http://www.bohemiancoding.com/sketch -->
    <title>background</title>
    <desc>Created with Sketch.</desc>
    <defs>
        <linearGradient x1="50%" y1="3.73593997%" x2="50%" y2="42.7914635%" id="linearGradient-1">
            <stop stop-color="#61B265" offset="0%"></stop>
            <stop stop-color="#2E7D32" offset="100%"></stop>
        </linearGradient>
    </defs>
    <g id="desktop-intro" stroke="none" stroke-width="1" fill="none" fill-rule="evenodd">
        <g id="background">
            <path d="M766,14.0000004 C766,14.0000004 666,-7.00000004 538.036215,45 C375.433498,114.000001 1.13686838e-13,23 1.13686838e-13,23 L0,241 L766,240.000001 L766,14.0000004 Z M1532.19081,58.4150843 C1532.19081,58.4150843 1466.63893,-24.584917 1304.03622,44.4150843 C1141.4335,113.415086 861.000017,29 766.000017,14 L766.000017,240 L1532.19081,240.415083 L1532.19081,58.4150843 Z" id="Combined-Shape" fill="url(#linearGradient-1)"></path>
            <rect id="Rectangle-253-Copy-8" fill-opacity="0.5" fill="#2E7D32" x="748.844523" y="66.8" width="3.99851218" height="1" rx="0.5"></rect>
            <rect id="Rectangle-253-Copy-8" fill-opacity="0.5" fill="#2E7D32" x="718.844523" y="36.8" width="3.99851218" height="1" rx="0.5"></rect>
            <rect id="Rectangle-253-Copy-8" fill-opacity="0.5" fill="#2E7D32" x="712.844523" y="38.8" width="3.99851218" height="1" rx="0.5"></rect>
            <rect id="Rectangle-253-Copy-8" fill-opacity="0.5" fill="#2E7D32" x="5.84452297" y="32.8" width="3.99851218" height="1" rx="0.5"></rect>
            <rect id="Rectangle-253-Copy-8" fill-opacity="0.5" fill="#2E7D32" x="48.844523" y="45.8" width="3.99851218" height="1" rx="0.5"></rect>
            <rect id="Rectangle-253-Copy-8" fill-opacity="0.5" fill="#2E7D32" x="52.844523" y="48.8" width="3.99851218" height="1" rx="0.5"></rect>
            <rect id="Rectangle-253-Copy-8" fill-opacity="0.5" fill="#2E7D32" x="11.844523" y="36.8" width="3.99851218" height="1" rx="0.5"></rect>
            <path d="M667.844523,64.8 C667.844523,64.2477153 668.522816,63.8 669.344797,63.8 L670.342761,63.8 C671.171339,63.8 671.843035,64.4725626 671.843035,64.8 L671.843035,63.8 C671.843035,64.3522847 671.164742,64.8 670.342761,64.8 L669.344797,64.8 C668.516219,64.8 667.844523,64.1274374 667.844523,63.8 L667.844523,64.8 Z" id="Rectangle-253-Copy-8" fill-opacity="0.5" fill="#2E7D32"></path>
            <rect id="Rectangle-253-Copy-8" fill-opacity="0.5" fill="#2E7D32" x="685.844523" y="49.8" width="3.99851218" height="1" rx="0.5"></rect>
            <rect id="Rectangle-253-Copy-8" fill-opacity="0.5" fill="#2E7D32" x="574.844523" y="47.8" width="3.99851218" height="1" rx="0.5"></rect>
            <rect id="Rectangle-253-Copy-8" fill-opacity="0.5" fill="#2E7D32" x="614.844523" y="67.8" width="3.99851218" height="1" rx="0.5"></rect>
            <rect id="Rectangle-253-Copy-8" fill-opacity="0.5" fill="#2E7D32" x="501.844523" y="66.8" width="3.99851218" height="1" rx="0.5"></rect>
            <rect id="Rectangle-253-Copy-8" fill-opacity="0.5" fill="#2E7D32" x="496.844523" y="68.8" width="3.99851218" height="1" rx="0.5"></rect>
            <rect id="Rectangle-253-Copy-8" fill-opacity="0.5" fill="#2E7D32" x="358.844523" y="75.8" width="3.99851218" height="1" rx="0.5"></rect>
            <rect id="Rectangle-253-Copy-8" fill-opacity="0.5" fill="#2E7D32" x="363.844523" y="77.8" width="3.99851218" height="1" rx="0.5"></rect>
            <rect id="Rectangle-253-Copy-8" fill-opacity="0.5" fill="#2E7D32" x="413.844523" y="84.8" width="3.99851218" height="1" rx="0.5"></rect>
            <rect id="Rectangle-253-Copy-8" fill-opacity="0.5" fill="#2E7D32" x="422.844523" y="76.8" width="3.99851218" height="1" rx="0.5"></rect>
            <rect id="Rectangle-253-Copy-8" fill-opacity="0.5" fill="#2E7D32" x="569.844523" y="38.8" width="3.99851218" height="1" rx="0.5"></rect>
            <rect id="Rectangle-253-Copy-8" fill-opacity="0.5" fill="#2E7D32" x="679.844523" y="46.8" width="3.99851218" height="1" rx="0.5"></rect>
            <rect id="Rectangle-253-Copy-8" fill-opacity="0.5" fill="#2E7D32" x="1458.84452" y="56.8" width="3.99851218" height="1" rx="0.5"></rect>
            <rect id="Rectangle-253-Copy-8" fill-opacity="0.5" fill="#2E7D32" x="1428.84452" y="26.8" width="3.99851218" height="1" rx="0.5"></rect>
            <rect id="Rectangle-253-Copy-8" fill-opacity="0.5" fill="#2E7D32" x="1422.84452" y="28.8" width="3.99851218" height="1" rx="0.5"></rect>
            <rect id="Rectangle-253-Copy-8" fill-opacity="0.5" fill="#2E7D32" x="715.844523" y="22.8" width="3.99851218" height="1" rx="0.5"></rect>
            <rect id="Rectangle-253-Copy-8" fill-opacity="0.5" fill="#2E7D32" x="758.844523" y="35.8" width="3.99851218" height="1" rx="0.5"></rect>
            <rect id="Rectangle-253-Copy-8" fill-opacity="0.5" fill="#2E7D32" x="762.844523" y="38.8" width="3.99851218" height="1" rx="0.5"></rect>
            <path d="M1377.84452,54.8 C1377.84452,54.2477153 1378.52282,53.8 1379.3448,53.8 L1380.34276,53.8 C1381.17134,53.8 1381.84304,54.4725626 1381.84304,54.8 L1381.84304,53.8 C1381.84304,54.3522847 1381.16474,54.8 1380.34276,54.8 L1379.3448,54.8 C1378.51622,54.8 1377.84452,54.1274374 1377.84452,53.8 L1377.84452,54.8 Z" id="Rectangle-253-Copy-8" fill-opacity="0.5" fill="#2E7D32"></path>
            <rect id="Rectangle-253-Copy-8" fill-opacity="0.5" fill="#2E7D32" x="1395.84452" y="39.8" width="3.99851218" height="1" rx="0.5"></rect>
            <rect id="Rectangle-253-Copy-8" fill-opacity="0.5" fill="#2E7D32" x="1504.84452" y="107.8" width="3.99851218" height="1" rx="0.5"></rect>
            <rect id="Rectangle-253-Copy-8" fill-opacity="0.5" fill="#2E7D32" x="1324.84452" y="57.8" width="3.99851218" height="1" rx="0.5"></rect>
            <rect id="Rectangle-253-Copy-8" fill-opacity="0.5" fill="#2E7D32" x="1319.84452" y="53.8" width="3.99851218" height="1" rx="0.5"></rect>
            <rect id="Rectangle-253-Copy-8" fill-opacity="0.5" fill="#2E7D32" x="1257.84452" y="70.8" width="3.99851218" height="1" rx="0.5"></rect>
            <rect id="Rectangle-253-Copy-8" fill-opacity="0.5" fill="#2E7D32" x="1175.84452" y="80.8" width="3.99851218" height="1" rx="0.5"></rect>
            <rect id="Rectangle-253-Copy-8" fill-opacity="0.5" fill="#2E7D32" x="1172.84452" y="77.8" width="3.99851218" height="1" rx="0.5"></rect>
            <rect id="Rectangle-253-Copy-8" fill-opacity="0.5" fill="#2E7D32" x="1431.84452" y="126.8" width="3.99851218" height="1" rx="0.5"></rect>
            <rect id="Rectangle-253-Copy-8" fill-opacity="0.5" fill="#2E7D32" x="1426.84452" y="128.8" width="3.99851218" height="1" rx="0.5"></rect>
            <rect id="Rectangle-253-Copy-8" fill-opacity="0.5" fill="#2E7D32" x="1288.84452" y="135.8" width="3.99851218" height="1" rx="0.5"></rect>
            <rect id="Rectangle-253-Copy-8" fill-opacity="0.5" fill="#2E7D32" x="1068.84452" y="71.8" width="3.99851218" height="1" rx="0.5"></rect>
            <rect id="Rectangle-253-Copy-8" fill-opacity="0.5" fill="#2E7D32" x="928.844523" y="61.8" width="3.99851218" height="1" rx="0.5"></rect>
            <rect id="Rectangle-253-Copy-8" fill-opacity="0.5" fill="#2E7D32" x="932.844523" y="64.8" width="3.99851218" height="1" rx="0.5"></rect>
            <rect id="Rectangle-253-Copy-8" fill-opacity="0.5" fill="#2E7D32" x="862.844523" y="64.8" width="3.99851218" height="1" rx="0.5"></rect>
            <rect id="Rectangle-253-Copy-8" fill-opacity="0.5" fill="#2E7D32" x="873.844523" y="57.8" width="3.99851218" height="1" rx="0.5"></rect>
            <rect id="Rectangle-253-Copy-8" fill-opacity="0.5" fill="#2E7D32" x="1123.84452" y="74.8" width="3.99851218" height="1" rx="0.5"></rect>
            <rect id="Rectangle-253-Copy-8" fill-opacity="0.5" fill="#2E7D32" x="1352.84452" y="136.8" width="3.99851218" height="1" rx="0.5"></rect>
            <rect id="Rectangle-253-Copy-8" fill-opacity="0.5" fill="#2E7D32" x="1499.84452" y="98.8" width="3.99851218" height="1" rx="0.5"></rect>
            <rect id="Rectangle-253-Copy-8" fill-opacity="0.5" fill="#2E7D32" x="1389.84452" y="36.8" width="3.99851218" height="1" rx="0.5"></rect>
            <polygon id="Triangle-1-Copy" fill="#3C8B40" points="670.125 26 675.25 55.8314607 665 55.8314607"></polygon>
            <polygon id="Triangle-1-Copy" fill="#2A732E" points="703.625 62 712.25 119.48 695 119.48"></polygon>
            <polygon id="Triangle-1-Copy-7" fill="#2A732E" points="899.625 29 908.25 86.48 891 86.48"></polygon>
            <polygon id="Triangle-1-Copy-11" fill="#358F39" points="1379.625 0 1388.25 57.48 1371 57.48"></polygon>
            <polygon id="Triangle-1-Copy-11" fill="#328736" points="1417 23 1433 113.684211 1401 113.684211"></polygon>
            <polygon id="Triangle-1-Copy" fill="#3E8E42" points="600.625 10.3333333 609.25 48.0175439 592 48.0175439"></polygon>
            <polygon id="Triangle-1-Copy" fill="#55A159" points="621.577514 3 626.155028 23 617 23"></polygon>
            <polygon id="Triangle-1-Copy-8" fill="#55A159" points="1002.57751 51 1007.15503 71 998 71"></polygon>
            <polygon id="Triangle-1-Copy" fill="#3C8B40" points="560.625 46 569.25 83.6842105 552 83.6842105"></polygon>
            <polygon id="Triangle-1-Copy-12" fill="#3C8B40" points="1049.625 52 1058.25 89.6842105 1041 89.6842105"></polygon>
            <polygon id="Triangle-1-Copy-9" fill="#3C8B40" points="822.625 17 831.25 54.6842105 814 54.6842105"></polygon>
            <polygon id="Triangle-1-Copy-10" fill="#3C8B40" points="1153.93699 56 1162.56199 93.6842105 1145.31199 93.6842105"></polygon>
            <polygon id="Triangle-1-Copy" fill="#3C8B40" points="520.172261 48 526.25 74 514.094523 74"></polygon>
            <polygon id="Triangle-1-Copy" fill="#377F3A" points="448.625 56 457.25 93.6842105 440 93.6842105"></polygon>
            <polygon id="Triangle-1-Copy-5" fill="#3E8E42" points="59.5 23.6842105 64 41.6842105 55 41.6842105"></polygon>
            <polygon id="Triangle-1-Copy-5" fill="#3E8E42" points="10.5 51.6842105 15 75.6842105 6 75.6842105"></polygon>
            <ellipse id="Oval-22" fill="#55A159" cx="695" cy="22" rx="5" ry="5"></ellipse>
            <ellipse id="Oval-22-Copy-6" fill="#55A159" cx="1231" cy="67" rx="5" ry="5"></ellipse>
            <ellipse id="Oval-22" fill="#3C8C3F" cx="405" cy="71" rx="7" ry="7"></ellipse>
            <ellipse id="Oval-22-Copy-8" fill="#3C8C3F" cx="957.155028" cy="71" rx="7" ry="7"></ellipse>
            <ellipse id="Oval-22" fill="#2E7D32" cx="742.5" cy="93.5" rx="10.5" ry="10.5"></ellipse>
            <ellipse id="Oval-22-Copy-7" fill="#328736" cx="1298.15696" cy="61" rx="16" ry="16"></ellipse>
        </g>
    </g>
</svg>