<?xml version="1.0" encoding="UTF-8" standalone="no"?>
<svg width="1015px" height="117px" viewBox="0 0 1015 117" version="1.1" xmlns="http://www.w3.org/2000/svg" xmlns:xlink="http://www.w3.org/1999/xlink">
    <!-- Generator: Sketch 39.1 (31720) - http://www.bohemiancoding.com/sketch -->
    <title>clouds</title>
    <desc>Created with Sketch.</desc>
    <defs></defs>
    <g id="desktop-intro" stroke="none" stroke-width="1" fill="none" fill-rule="evenodd">
        <g id="clouds" fill="#FFFFFF">
            <path d="M38.5,4 C29.2279167,4 21.175,9.2275 17.1645833,16.8775 C7.5075,17.8975 0,26.025625 0,35.875 C0,46.425625 8.63041667,55 19.25,55 L60.9583333,55 C69.8133333,55 77,47.86 77,39.0625 C77,30.6475 70.4229167,23.82625 62.08125,23.2525 C59.8995833,12.255625 50.1783333,4 38.5,4 Z" id="Shape" fill-opacity="0.25" transform="translate(38.500000, 29.500000) scale(-1, 1) translate(-38.500000, -29.500000) "></path>
            <path d="M568.28125,28.2613764 C567.00625,21.8289677 561.325,17 554.5,17 C549.08125,17 544.375,20.0577247 542.03125,24.5324438 C536.3875,25.129073 532,29.8834621 532,35.6446629 C532,41.8160463 537.04375,46.8314607 543.25,46.8314607 L567.625,46.8314607 C572.8,46.8314607 577,42.6550562 577,37.5091292 C577,32.5869382 573.15625,28.5969803 568.28125,28.2613764 L568.28125,28.2613764 Z" id="Shape" fill-opacity="0.2"></path>
            <path d="M476.1875,69.5075843 C475.3375,65.2193118 471.55,62 467,62 C463.3875,62 460.25,64.0384831 458.6875,67.0216292 C454.925,67.419382 452,70.5889747 452,74.4297753 C452,78.5440309 455.3625,81.8876404 459.5,81.8876404 L475.75,81.8876404 C479.2,81.8876404 482,79.1033708 482,75.6727528 C482,72.3912921 479.4375,69.7313202 476.1875,69.5075843 L476.1875,69.5075843 Z" id="Shape" fill-opacity="0.1"></path>
            <path d="M637.7875,77.9844382 C635.124167,64.5478511 623.256667,54.4606742 609,54.4606742 C597.680833,54.4606742 587.85,60.8479213 582.954167,70.1951124 C571.165,71.4414045 562,81.3727949 562,93.4073034 C562,106.298638 572.535833,116.775281 585.5,116.775281 L636.416667,116.775281 C647.226667,116.775281 656,108.051236 656,97.3019663 C656,87.0200562 647.970833,78.6854775 637.7875,77.9844382 L637.7875,77.9844382 Z" id="Shape" fill-opacity="0.1"></path>
            <path d="M266.28125,63.4299157 C265.00625,56.997507 259.325,52.1685393 252.5,52.1685393 C247.08125,52.1685393 242.375,55.226264 240.03125,59.7009831 C234.3875,60.2976124 230,65.0520014 230,70.8132022 C230,76.9845857 235.04375,82 241.25,82 L265.625,82 C270.8,82 275,77.8235955 275,72.6776685 C275,67.7554775 271.15625,63.7655197 266.28125,63.4299157 L266.28125,63.4299157 Z" id="Shape" fill-opacity="0.1" transform="translate(252.500000, 67.084270) scale(-1, 1) translate(-252.500000, -67.084270) "></path>
            <path d="M1006.28125,73.4299157 C1005.00625,66.997507 999.325,62.1685393 992.5,62.1685393 C987.08125,62.1685393 982.375,65.226264 980.03125,69.7009831 C974.3875,70.2976124 970,75.0520014 970,80.8132022 C970,86.9845857 975.04375,92 981.25,92 L1005.625,92 C1010.8,92 1015,87.8235955 1015,82.6776685 C1015,77.7554775 1011.15625,73.7655197 1006.28125,73.4299157 L1006.28125,73.4299157 Z" id="Shape" fill-opacity="0.1" transform="translate(992.500000, 77.084270) scale(-1, 1) translate(-992.500000, -77.084270) "></path>
            <path d="M341.026589,19.2525 C338.846843,8.255625 329.134153,0 317.466102,0 C308.202182,0 300.156356,5.2275 296.14947,12.8775 C286.50089,13.8975 279,22.025625 279,31.875 C279,42.425625 287.622818,51 298.233051,51 L339.904661,51 C348.751864,51 355.932203,43.86 355.932203,35.0625 C355.932203,26.6475 349.360911,19.82625 341.026589,19.2525 L341.026589,19.2525 Z" id="Shape" fill-opacity="0.1" transform="translate(317.466102, 25.500000) scale(-1, 1) translate(-317.466102, -25.500000) "></path>
            <path d="M900.188665,40.0275 C897.581518,26.874375 885.964379,17 872.008475,17 C860.9281,17 851.304661,23.2525 846.512112,32.4025 C834.971653,33.6225 826,43.344375 826,55.125 C826,67.744375 836.313566,78 849.004237,78 L898.846751,78 C909.428701,78 918.016949,69.46 918.016949,58.9375 C918.016949,48.8725 910.157168,40.71375 900.188665,40.0275 L900.188665,40.0275 Z" id="Shape" fill-opacity="0.1" transform="translate(872.008475, 47.500000) scale(-1, 1) translate(-872.008475, -47.500000) "></path>
            <path d="M65.9078125,79.53 C65.4190625,76.9425 63.24125,75 60.625,75 C58.5478125,75 56.74375,76.23 55.8453125,78.03 C53.681875,78.27 52,80.1825 52,82.5 C52,84.9825 53.9334375,87 56.3125,87 L65.65625,87 C67.64,87 69.25,85.32 69.25,83.25 C69.25,81.27 67.7765625,79.665 65.9078125,79.53 L65.9078125,79.53 Z" id="Shape" fill-opacity="0.1"></path>
            <path d="M205.451562,25.57 C204.311146,19.5325 199.229583,15 193.125,15 C188.278229,15 184.06875,17.87 181.972396,22.07 C176.924375,22.63 173,27.0925 173,32.5 C173,38.2925 177.511354,43 183.0625,43 L204.864583,43 C209.493333,43 213.25,39.08 213.25,34.25 C213.25,29.63 209.811979,25.885 205.451562,25.57 L205.451562,25.57 Z" id="Shape" fill-opacity="0.1"></path>
        </g>
    </g>
</svg>