<?xml version="1.0" encoding="UTF-8" standalone="no"?>
<svg width="1801px" height="277px" viewBox="0 0 1801 277" version="1.1" xmlns="http://www.w3.org/2000/svg" xmlns:xlink="http://www.w3.org/1999/xlink">
    <!-- Generator: Sketch 39.1 (31720) - http://www.bohemiancoding.com/sketch -->
    <title>foreground</title>
    <desc>Created with Sketch.</desc>
    <defs>
        <radialGradient cx="50%" cy="0%" fx="50%" fy="0%" r="97.520727%" id="radialGradient-1">
            <stop stop-color="#63B367" offset="0%"></stop>
            <stop stop-color="#4E8F52" offset="100%"></stop>
        </radialGradient>
    </defs>
    <g id="desktop-intro" stroke="none" stroke-width="1" fill="none" fill-rule="evenodd">
        <g id="foreground">
            <path d="M0.605367962,107.385065 C0.605367962,107.385065 236.664458,9.77013424 456.83224,107.385065 C677.000021,204.999996 900.000021,119.999999 900.000021,119.999999 L900.000021,276.999995 L0.605367962,277 L0.605367962,107.385065 Z" id="Path-743" fill="url(#radialGradient-1)"></path>
            <path d="M900,120.000001 C900,120.000001 1136.66446,9.76948272 1356.83224,107.384414 C1577.00002,204.999345 1800.60537,119.641728 1800.60537,119.641728 L1800.60537,276.999348 L900,276.999349 L900,120.000001 Z" id="Path-743" fill="url(#radialGradient-1)"></path>
            <polygon id="Triangle-1" fill="#2E7D32" points="34 6 49 124 19 124"></polygon>
            <polygon id="Triangle-1-Copy-6" fill="#2E7D32" points="1214.73145 0 1229.73145 118 1199.73145 118"></polygon>
            <polygon id="Triangle-1-Copy-6" fill="#2E7D32" points="1745 65 1760 165 1730 165"></polygon>
            <polygon id="Triangle-1-Copy" fill="#3C8B40" points="499 37 524 177 474 177"></polygon>
            <polygon id="Triangle-1-Copy-2" fill="#3C8B40" points="1307 62 1322 127 1292 127"></polygon>
            <polygon id="Triangle-1-Copy-2" fill="#3C8B40" points="1115 35 1125 85 1105 85"></polygon>
            <polygon id="Triangle-1-Copy" fill="#2A732E" points="862.5 90 873 144 852 144"></polygon>
            <polygon id="Triangle-1-Copy" fill="#3C8B40" points="634 64 654 170 614 170"></polygon>
            <polygon id="Triangle-1-Copy" fill="#3C8B40" points="1068.5 19 1091 137 1046 137"></polygon>
            <polygon id="Triangle-1-Copy-3" fill="#2E7D32" points="265.5 31 283 131 248 131"></polygon>
            <polygon id="Triangle-1-Copy-3" fill="#2E7D32" points="188.5 29 199 94 178 94"></polygon>
            <polygon id="Triangle-1-Copy-4" fill="#2E7D32" points="1413.5 92 1424 157 1403 157"></polygon>
            <rect id="Rectangle-253" fill-opacity="0.25" fill="#2E7D32" x="265.480565" y="175.36" width="12.155477" height="3.04" rx="1.52"></rect>
            <rect id="Rectangle-253-Copy" fill-opacity="0.25" fill="#2E7D32" x="274.597173" y="179.92" width="12.155477" height="3.04" rx="1.52"></rect>
            <rect id="Rectangle-253-Copy-2" fill-opacity="0.25" fill="#2E7D32" x="128.731449" y="114.56" width="12.155477" height="3.04" rx="1.52"></rect>
            <rect id="Rectangle-253-Copy-3" fill-opacity="0.25" fill="#2E7D32" x="133.289753" y="110" width="12.155477" height="3.04" rx="1.52"></rect>
            <rect id="Rectangle-253-Copy-4" fill-opacity="0.25" fill="#2E7D32" x="22" y="160.56" width="12.155477" height="3.04" rx="1.52"></rect>
            <rect id="Rectangle-253-Copy-5" fill-opacity="0.25" fill="#2E7D32" x="32.6360424" y="167.4" width="12.155477" height="3.04" rx="1.52"></rect>
            <rect id="Rectangle-253-Copy-4" fill-opacity="0.25" fill="#2E7D32" x="312" y="130.56" width="12.155477" height="3.04" rx="1.52"></rect>
            <rect id="Rectangle-253-Copy-5" fill-opacity="0.25" fill="#2E7D32" x="322.636042" y="137.4" width="12.155477" height="3.04" rx="1.52"></rect>
            <rect id="Rectangle-253-Copy-6" fill-opacity="0.25" fill="#2E7D32" x="531.858657" y="170.96" width="12.155477" height="3.04" rx="1.52"></rect>
            <rect id="Rectangle-253-Copy-7" fill-opacity="0.25" fill="#2E7D32" x="562.24735" y="157.36" width="12.155477" height="3.04" rx="1.52"></rect>
            <rect id="Rectangle-253-Copy-8" fill-opacity="0.25" fill="#2E7D32" x="569.844523" y="152.8" width="12.155477" height="3.04" rx="1.52"></rect>
            <rect id="Rectangle-253-Copy-6" fill-opacity="0.25" fill="#2E7D32" x="872" y="156" width="12.155477" height="3.04" rx="1.52"></rect>
            <rect id="Rectangle-253-Copy-7" fill-opacity="0.25" fill="#2E7D32" x="752" y="177" width="12.155477" height="3.04" rx="1.52"></rect>
            <rect id="Rectangle-253-Copy-14" fill-opacity="0.25" fill="#2E7D32" x="690" y="165" width="12.155477" height="3.04" rx="1.52"></rect>
            <rect id="Rectangle-253-Copy-8" fill-opacity="0.25" fill="#2E7D32" x="759.844523" y="172.8" width="12.155477" height="3.04" rx="1.52"></rect>
            <path d="M793.514922,221 L802.640555,221 C803.477223,221 804.155477,221.674675 804.155477,222.52 C804.155477,223.359473 803.467118,224.04 802.640555,224.04 L793.514922,224.04 C792.678254,224.04 792,223.365325 792,222.52 C792,221.680527 792.688359,221 793.514922,221 Z" id="Rectangle-253-Copy-6" fill-opacity="0.25" fill="#2E7D32" transform="translate(798.077739, 222.520000) scale(-1, 1) translate(-798.077739, -222.520000) "></path>
            <path d="M866.514922,200 L875.640555,200 C876.477223,200 877.155477,200.674675 877.155477,201.52 C877.155477,202.359473 876.467118,203.04 875.640555,203.04 L866.514922,203.04 C865.678254,203.04 865,202.365325 865,201.52 C865,200.680527 865.688359,200 866.514922,200 Z" id="Rectangle-253-Copy-7" fill-opacity="0.25" fill="#2E7D32" transform="translate(871.077739, 201.520000) scale(-1, 1) translate(-871.077739, -201.520000) "></path>
            <path d="M851.514922,193 L860.640555,193 C861.477223,193 862.155477,193.674675 862.155477,194.52 C862.155477,195.359473 861.467118,196.04 860.640555,196.04 L851.514922,196.04 C850.678254,196.04 850,195.365325 850,194.52 C850,193.680527 850.688359,193 851.514922,193 Z" id="Rectangle-253-Copy-8" fill-opacity="0.25" fill="#2E7D32" transform="translate(856.077739, 194.520000) scale(-1, 1) translate(-856.077739, -194.520000) "></path>
            <rect id="Rectangle-253" fill-opacity="0.25" fill="#2E7D32" x="1165.48057" y="175.36" width="12.155477" height="3.04" rx="1.52"></rect>
            <rect id="Rectangle-253-Copy" fill-opacity="0.25" fill="#2E7D32" x="1174.59717" y="179.92" width="12.155477" height="3.04" rx="1.52"></rect>
            <rect id="Rectangle-253-Copy-2" fill-opacity="0.25" fill="#2E7D32" x="1028.73145" y="114.56" width="12.155477" height="3.04" rx="1.52"></rect>
            <rect id="Rectangle-253-Copy-3" fill-opacity="0.25" fill="#2E7D32" x="1033.28975" y="110" width="12.155477" height="3.04" rx="1.52"></rect>
            <rect id="Rectangle-253-Copy-4" fill-opacity="0.25" fill="#2E7D32" x="922" y="160.56" width="12.155477" height="3.04" rx="1.52"></rect>
            <rect id="Rectangle-253-Copy-5" fill-opacity="0.25" fill="#2E7D32" x="932.636042" y="167.4" width="12.155477" height="3.04" rx="1.52"></rect>
            <rect id="Rectangle-253-Copy-4" fill-opacity="0.25" fill="#2E7D32" x="1212" y="130.56" width="12.155477" height="3.04" rx="1.52"></rect>
            <rect id="Rectangle-253-Copy-4" fill-opacity="0.25" fill="#2E7D32" x="1152" y="80.56" width="12.155477" height="3.04" rx="1.52"></rect>
            <rect id="Rectangle-253-Copy-4" fill-opacity="0.25" fill="#2E7D32" x="1137" y="88.56" width="12.155477" height="3.04" rx="1.52"></rect>
            <rect id="Rectangle-253-Copy-5" fill-opacity="0.25" fill="#2E7D32" x="1222.63604" y="137.4" width="12.155477" height="3.04" rx="1.52"></rect>
            <rect id="Rectangle-253-Copy-6" fill-opacity="0.25" fill="#2E7D32" x="1431.85866" y="170.96" width="12.155477" height="3.04" rx="1.52"></rect>
            <rect id="Rectangle-253-Copy-7" fill-opacity="0.25" fill="#2E7D32" x="1462.24735" y="157.36" width="12.155477" height="3.04" rx="1.52"></rect>
            <rect id="Rectangle-253-Copy-8" fill-opacity="0.25" fill="#2E7D32" x="1469.84452" y="152.8" width="12.155477" height="3.04" rx="1.52"></rect>
            <rect id="Rectangle-253-Copy-6" fill-opacity="0.25" fill="#2E7D32" x="1772" y="156" width="12.155477" height="3.04" rx="1.52"></rect>
            <rect id="Rectangle-253-Copy-7" fill-opacity="0.25" fill="#2E7D32" x="1652" y="177" width="12.155477" height="3.04" rx="1.52"></rect>
            <rect id="Rectangle-253-Copy-14" fill-opacity="0.25" fill="#2E7D32" x="1590" y="165" width="12.155477" height="3.04" rx="1.52"></rect>
            <rect id="Rectangle-253-Copy-8" fill-opacity="0.25" fill="#2E7D32" x="1659.84452" y="172.8" width="12.155477" height="3.04" rx="1.52"></rect>
            <path d="M1693.51492,221 L1702.64055,221 C1703.47722,221 1704.15548,221.674675 1704.15548,222.52 C1704.15548,223.359473 1703.46712,224.04 1702.64055,224.04 L1693.51492,224.04 C1692.67825,224.04 1692,223.365325 1692,222.52 C1692,221.680527 1692.68836,221 1693.51492,221 Z" id="Rectangle-253-Copy-6" fill-opacity="0.25" fill="#2E7D32" transform="translate(1698.077739, 222.520000) scale(-1, 1) translate(-1698.077739, -222.520000) "></path>
            <path d="M1766.51492,200 L1775.64055,200 C1776.47722,200 1777.15548,200.674675 1777.15548,201.52 C1777.15548,202.359473 1776.46712,203.04 1775.64055,203.04 L1766.51492,203.04 C1765.67825,203.04 1765,202.365325 1765,201.52 C1765,200.680527 1765.68836,200 1766.51492,200 Z" id="Rectangle-253-Copy-7" fill-opacity="0.25" fill="#2E7D32" transform="translate(1771.077739, 201.520000) scale(-1, 1) translate(-1771.077739, -201.520000) "></path>
            <path d="M1751.51492,193 L1760.64055,193 C1761.47722,193 1762.15548,193.674675 1762.15548,194.52 C1762.15548,195.359473 1761.46712,196.04 1760.64055,196.04 L1751.51492,196.04 C1750.67825,196.04 1750,195.365325 1750,194.52 C1750,193.680527 1750.68836,193 1751.51492,193 Z" id="Rectangle-253-Copy-8" fill-opacity="0.25" fill="#2E7D32" transform="translate(1756.077739, 194.520000) scale(-1, 1) translate(-1756.077739, -194.520000) "></path>
            <ellipse id="Oval-22" fill="#2E7D32" cx="394.5" cy="101.5" rx="23.5" ry="23.5"></ellipse>
            <ellipse id="Oval-22-Copy-5" fill="#2E7D32" cx="986.344523" cy="101.5" rx="23.5" ry="23.5"></ellipse>
            <ellipse id="Oval-22" fill="#2E7D32" cx="808.5" cy="144.5" rx="15.5" ry="15.5"></ellipse>
            <ellipse id="Oval-22-Copy" fill="#3C8B40" cx="1681.5" cy="151.5" rx="15.5" ry="15.5"></ellipse>
            <ellipse id="Oval-22" fill="#429246" cx="352" cy="75" rx="9" ry="9"></ellipse>
            <ellipse id="Oval-22-Copy-3" fill="#429246" cx="1374" cy="118" rx="9" ry="9"></ellipse>
            <ellipse id="Oval-22-Copy-4" fill="#2E7D32" cx="936" cy="109" rx="9" ry="9"></ellipse>
            <circle id="Oval-22-Copy-2" fill="#358439" cx="92" cy="83" r="13"></circle>
        </g>
    </g>
</svg>